<?xml version="1.0" standalone="no"?>
<!DOCTYPE svg PUBLIC "-//W3C//DTD SVG 20010904//EN"
 "http://www.w3.org/TR/2001/REC-SVG-20010904/DTD/svg10.dtd">
<svg version="1.0" xmlns="http://www.w3.org/2000/svg"
 width="938.000000pt" height="938.000000pt" viewBox="0 0 938.000000 938.000000"
 preserveAspectRatio="xMidYMid meet">
<metadata>
Created by potrace 1.14, written by Peter Selinger 2001-2017
</metadata>
<g transform="translate(0.000000,938.000000) scale(0.100000,-0.100000)"
fill="#000000" stroke="none">
<path d="M563 8914 c-73 -16 -213 -72 -213 -85 0 -5 -6 -9 -13 -9 -8 0 -23 -8
-35 -17 -11 -10 -41 -35 -66 -56 -92 -77 -193 -242 -213 -347 -2 -14 -8 -43
-13 -65 -11 -48 -8 -5169 3 -5203 4 -12 9 -31 11 -41 11 -48 56 -144 98 -207
46 -68 147 -174 167 -174 5 0 14 -6 18 -13 17 -28 185 -102 257 -114 17 -2 42
-6 56 -9 19 -3 3985 -7 4311 -4 l55 0 0 250 1 250 -26 1 c-14 0 -325 0 -691 0
-430 0 -679 4 -705 11 -56 14 -109 60 -135 115 l-23 48 0 1057 c0 803 3 1068
13 1101 13 49 58 102 110 132 34 20 53 20 1120 20 l1085 0 40 -25 c22 -13 45
-29 50 -35 20 -20 56 -75 49 -75 -3 0 -1 -6 5 -14 9 -11 12 -113 12 -381 l0
-366 69 -33 69 -34 73 50 c40 27 76 55 79 61 4 7 7 163 7 347 0 328 0 337 22
380 27 55 72 95 125 113 56 20 2174 19 2197 0 8 -7 17 -11 20 -8 3 3 25 -15
50 -40 67 -67 70 -86 71 -435 0 -165 2 -300 5 -300 5 0 51 14 92 28 8 3 20 6
25 7 6 2 43 14 83 28 51 18 72 22 72 13 0 -7 8 -21 18 -32 20 -23 39 -52 49
-74 4 -8 9 -17 12 -20 11 -10 100 -145 107 -163 4 -10 10 -14 13 -9 7 11 5
3768 -1 3792 -3 8 -8 33 -13 55 -4 22 -12 46 -18 53 -5 6 -7 12 -4 12 3 0 -4
21 -15 47 -88 200 -245 337 -468 410 -52 17 -236 18 -4030 20 -3336 1 -3985
-1 -4037 -13z m258 -455 c43 1 87 1 97 1 9 0 35 0 57 0 22 1 49 1 60 1 11 0
32 -2 48 -4 15 -2 30 0 33 5 3 4 9 6 14 3 7 -4 38 -5 140 -4 14 0 37 -2 53 -4
15 -2 30 0 33 5 3 4 9 6 14 3 4 -3 32 -5 62 -5 29 0 61 0 71 0 9 0 25 0 35 0
142 -2 135 -2 167 0 11 0 51 0 88 -1 37 -1 71 1 74 4 3 3 16 2 29 -3 16 -6 24
-6 24 1 0 6 4 8 9 5 8 -5 82 -8 131 -5 8 1 33 1 55 0 22 -1 47 -1 55 0 8 0 24
0 35 -1 11 0 27 0 35 1 8 0 40 0 70 0 30 0 66 0 80 0 14 0 37 -2 53 -4 15 -2
29 -1 32 3 2 3 26 4 52 0 27 -3 60 -3 73 0 14 4 40 3 58 -1 17 -4 35 -3 38 2
3 5 9 7 13 5 4 -3 27 -6 52 -7 102 -6 184 -75 205 -174 6 -27 5 -2114 0 -2142
-15 -74 -83 -141 -161 -160 -24 -5 -450 -9 -1085 -8 -1108 1 -1089 0 -1149 47
-34 26 -67 77 -76 117 -4 18 -7 509 -7 1090 0 1133 -2 1090 48 1151 30 36 92
70 137 76 23 4 44 8 46 10 2 2 8 1 13 -2 5 -3 45 -5 89 -5z m4902 -37 c4 -1
10 -2 15 -3 15 -1 78 -43 95 -63 26 -31 56 -90 56 -112 0 -10 0 -490 1 -1065
1 -575 -2 -1059 -6 -1075 -15 -62 -61 -115 -124 -143 -41 -18 -79 -19 -1099
-19 -697 -1 -1070 3 -1096 10 -56 14 -109 60 -135 115 l-22 48 -1 1070 0 1070
26 50 c14 28 35 57 47 65 12 8 28 20 35 27 7 7 25 14 40 17 15 3 29 7 31 9 3
3 2121 2 2137 -1z m2820 -14 c51 -23 103 -83 117 -135 10 -32 13 -302 13
-1086 0 -573 -4 -1058 -8 -1077 -15 -66 -60 -120 -127 -150 -39 -17 -90 -18
-1117 -17 l-1076 2 -42 22 c-49 26 -85 72 -103 128 -10 31 -13 268 -13 1100 0
1060 0 1061 22 1102 11 23 31 53 43 66 25 26 88 62 88 50 0 -4 4 -3 10 3 6 6
383 10 1082 9 979 -1 1076 -2 1111 -17z m-5695 -2839 c20 -12 47 -30 59 -41
22 -20 54 -79 60 -108 5 -24 3 -2123 -1 -2147 -13 -65 -79 -134 -150 -158 -21
-7 -382 -10 -1096 -10 -982 0 -1068 2 -1101 17 -57 27 -114 94 -126 148 -2 8
-4 490 -4 1071 -1 785 2 1066 11 1100 14 52 78 119 131 136 24 8 352 11 1107
12 1066 0 1073 0 1110 -20z"/>
<path d="M6654 5061 c-26 -5 -72 -38 -84 -61 -5 -10 -12 -42 -15 -72 -6 -53
-8 -67 -20 -143 -4 -22 -8 -60 -10 -85 -2 -25 -4 -45 -5 -45 -3 0 -7 -29 -14
-86 -4 -30 -8 -63 -10 -74 -3 -11 -7 -46 -11 -78 l-8 -58 -86 -41 c-47 -23
-88 -44 -91 -47 -3 -3 -21 -15 -40 -25 -19 -11 -64 -39 -100 -64 -67 -46 -88
-55 -105 -42 -5 4 -82 36 -170 70 -88 35 -165 67 -171 71 -6 5 -14 6 -17 2 -4
-3 -7 0 -7 7 0 7 -2 11 -5 8 -3 -3 -47 11 -98 32 -66 27 -103 37 -130 34 -58
-5 -75 -26 -191 -239 -6 -11 -13 -22 -16 -25 -5 -5 -16 -24 -51 -88 -11 -20
-31 -55 -45 -77 -13 -22 -27 -47 -31 -55 -4 -8 -34 -60 -66 -115 -120 -202
-155 -268 -161 -300 -8 -41 18 -85 72 -125 25 -19 53 -41 62 -47 27 -22 273
-213 336 -261 52 -39 61 -50 57 -72 -17 -95 -17 -379 1 -408 5 -9 -28 -52 -42
-52 -4 0 -25 -16 -47 -35 -45 -40 -38 -34 -125 -100 -36 -27 -67 -52 -70 -55
-3 -4 -31 -26 -62 -49 -32 -24 -58 -48 -58 -53 0 -5 -4 -7 -9 -4 -5 4 -11 3
-13 -2 -1 -4 -21 -21 -44 -39 -25 -19 -44 -46 -51 -67 -16 -52 -11 -67 61
-189 25 -43 46 -82 46 -87 0 -6 5 -10 10 -10 6 0 10 -7 10 -15 0 -8 5 -15 10
-15 6 0 10 -5 10 -11 0 -6 41 -80 90 -165 50 -84 90 -155 90 -158 0 -3 14 -25
30 -49 17 -25 30 -47 30 -50 0 -6 70 -125 92 -155 9 -13 33 -30 54 -37 33 -11
44 -10 88 5 55 20 218 85 251 100 11 5 45 19 75 30 30 12 71 28 90 37 19 9 41
16 48 16 6 0 12 4 12 9 0 4 8 8 18 8 9 1 28 7 42 15 21 11 28 11 40 0 8 -7 47
-34 85 -59 39 -26 77 -51 86 -58 9 -6 58 -32 109 -57 51 -25 95 -53 96 -61 2
-8 5 -26 8 -40 3 -14 8 -47 11 -75 3 -27 8 -63 11 -80 5 -31 10 -68 19 -145 2
-25 9 -72 14 -105 6 -33 13 -79 15 -102 8 -66 30 -109 67 -127 28 -14 89 -16
518 -16 464 0 487 1 518 20 36 22 50 43 58 91 3 19 7 45 10 59 2 14 7 50 10
80 3 30 7 62 10 70 2 8 6 35 9 60 15 126 18 147 22 170 3 14 7 47 10 73 8 75
18 92 64 107 22 7 43 17 46 22 3 5 22 15 42 24 37 15 186 108 210 132 23 21
52 34 52 22 0 -5 3 -9 8 -8 10 3 84 -22 98 -33 6 -5 14 -6 17 -2 4 3 7 1 7 -5
0 -7 3 -11 8 -10 4 1 18 -3 32 -9 160 -67 391 -158 416 -163 66 -15 100 18
196 190 14 25 53 92 86 148 34 57 62 106 62 108 0 3 15 28 33 57 18 29 38 63
45 77 25 51 78 140 90 152 7 7 12 15 12 19 0 5 16 35 36 69 30 51 35 68 30
101 -3 22 -8 45 -12 51 -5 8 -306 250 -441 355 -73 56 -72 55 -65 114 8 71 8
258 -1 335 l-6 62 47 36 c26 19 52 39 57 43 6 5 39 31 75 58 36 28 67 52 70
55 3 3 41 32 85 65 44 33 93 72 110 87 16 16 33 28 38 28 14 0 47 65 47 93 0
29 -15 59 -123 243 -35 60 -66 116 -70 124 -4 8 -17 31 -28 50 -29 47 -161
275 -189 325 -13 22 -31 54 -41 70 -11 17 -22 37 -26 45 -12 25 -46 49 -79 55
-27 6 -90 -13 -189 -55 -11 -5 -49 -21 -85 -36 -36 -14 -76 -31 -90 -37 -14
-5 -29 -11 -35 -12 -13 -4 -184 -73 -211 -86 -17 -9 -29 -5 -68 23 -27 18 -55
38 -64 43 -9 6 -22 15 -28 21 -7 6 -66 38 -132 70 l-120 59 -7 45 c-4 25 -9
54 -11 65 -2 11 -6 44 -10 73 -3 29 -8 63 -10 75 -3 12 -7 40 -10 62 -6 47
-33 240 -39 273 -11 61 -29 89 -70 106 -19 9 -950 15 -991 7z m591 -1504 c109
-13 222 -55 335 -126 65 -40 230 -204 230 -227 0 -3 9 -19 20 -35 12 -15 34
-60 50 -98 129 -315 58 -659 -188 -899 -96 -93 -251 -178 -362 -198 -14 -3
-40 -9 -57 -14 -30 -8 -243 -6 -288 3 -78 15 -191 58 -237 89 -16 11 -28 16
-28 11 0 -4 -4 -3 -8 2 -4 6 -23 22 -42 35 -19 13 -40 29 -46 35 -6 5 -22 19
-35 31 -86 74 -172 206 -214 329 -50 146 -56 340 -15 475 13 41 24 77 25 80 3
11 55 116 67 135 61 94 211 245 245 245 7 0 13 4 13 9 0 11 141 75 210 95 30
8 78 18 105 22 28 3 51 7 52 8 3 2 129 -2 168 -7z"/>
</g>
</svg>
