<?xml version="1.0" encoding="UTF-8"?>
<svg id="Layer_1" data-name="Layer 1" xmlns="http://www.w3.org/2000/svg" viewBox="0 0 468.92 423.76">
  <path d="m422.11.65H35.54C16.27.65.65,16.28.65,35.54v246.85c0,19.26,15.62,34.89,34.89,34.89h213.11v-23.86h-67.45c-6.36,0-11.51-5.16-11.51-11.51v-102.46c0-6.37,5.15-11.52,11.51-11.52h102.46c6.37,0,11.51,5.15,11.51,11.52v33.62l6.15,2.95,7.37-5v-31.57c0-6.37,5.16-11.52,11.51-11.52h102.46c6.37,0,11.52,5.15,11.52,11.52v28.21l13.14-4.3,9.68,14.67V35.54c0-19.26-15.62-34.89-34.89-34.89ZM149.2,280.22c0,6.37-5.16,11.51-11.52,11.51H35.22c-6.35,0-11.51-5.14-11.51-11.51v-102.46c0-6.36,5.16-11.52,11.51-11.52h102.46c6.36,0,11.52,5.16,11.52,11.52v102.46Zm0-143.42c0,6.36-5.16,11.52-11.52,11.52H35.22c-6.35,0-11.51-5.16-11.51-11.52V34.34c0-6.36,5.16-11.51,11.51-11.51h102.46c6.36,0,11.52,5.15,11.52,11.51v102.46Zm145.97,1.68c0,6.37-5.14,11.53-11.51,11.53h-102.46c-6.36,0-11.51-5.16-11.51-11.53V36.03c0-6.36,5.15-11.52,11.51-11.52h102.46c6.37,0,11.51,5.16,11.51,11.52v102.45Zm139.01,0c0,6.37-5.15,11.53-11.52,11.53h-102.46c-6.35,0-11.51-5.16-11.51-11.53V36.03c0-6.36,5.16-11.52,11.51-11.52h102.46c6.37,0,11.52,5.16,11.52,11.52v102.45Z" fill="#231f20" stroke="#231f20" stroke-miterlimit="10" stroke-width="1.3"/>
  <path d="m356.81,348.83c-22.28,0-40.35-18.06-40.35-40.35s18.06-40.35,40.35-40.35,40.35,18.06,40.35,40.35-18.06,40.35-40.35,40.35m85.65-29.17c.46-3.69.81-7.38.81-11.18s-.35-7.61-.81-11.53l24.32-18.79c2.19-1.73,2.77-4.84,1.38-7.38l-23.06-39.89c-1.38-2.54-4.5-3.57-7.03-2.54l-28.7,11.53c-5.99-4.5-12.22-8.42-19.48-11.3l-4.27-30.55c-.46-2.77-2.88-4.84-5.76-4.84h-46.11c-2.88,0-5.3,2.08-5.76,4.84l-4.27,30.55c-7.26,2.88-13.49,6.8-19.48,11.3l-28.7-11.53c-2.54-1.04-5.65,0-7.03,2.54l-23.06,39.89c-1.5,2.54-.81,5.65,1.38,7.38l24.32,18.79c-.46,3.92-.81,7.72-.81,11.53s.35,7.49.81,11.18l-24.32,19.14c-2.19,1.73-2.88,4.84-1.38,7.38l23.06,39.89c1.38,2.54,4.5,3.46,7.03,2.54l28.7-11.64c5.99,4.61,12.22,8.53,19.48,11.41l4.27,30.55c.46,2.77,2.88,4.84,5.76,4.84h46.11c2.88,0,5.3-2.08,5.76-4.84l4.27-30.55c7.26-3,13.49-6.8,19.48-11.41l28.7,11.64c2.54.92,5.65,0,7.03-2.54l23.06-39.89c1.38-2.54.81-5.65-1.38-7.38l-24.32-19.14Z" stroke-width="0"/>
</svg>